<svg id="bebb81ab-a6c6-47cd-9dde-885d1b4f3a31" data-name="b154f413-46c3-4de9-aa75-855431dc8da3" xmlns="http://www.w3.org/2000/svg" width="865.76" height="682.89" viewBox="0 0 865.76 682.89"><path d="M451.54,267.51H59.38V24.87H451.54Zm-390.16-2H449.54V26.87H61.38Z" fill="#ffc967"/><path d="M537.75,603.18h54.89a16,16,0,0,1,16,16v12.93H521.77v-13A16,16,0,0,1,537.75,603.18Z" fill="#ff6d60"/><path d="M537.75,603.18h54.89a16,16,0,0,1,16,16v12.93H521.77v-13A16,16,0,0,1,537.75,603.18Z" opacity="0.2" style="isolation:isolate"/><path d="M822.74,363.65H590.63V22.94H822.74Zm-225.87-6.24H816.5V29.19H596.87Z" fill="#ebebeb"/><rect x="703.48" y="30.83" width="6.24" height="329.71" fill="#ebebeb"/><rect x="584.96" y="35.57" width="243.44" height="8.69" fill="#ebebeb"/><rect x="584.96" y="45.34" width="243.44" height="8.69" fill="#ebebeb"/><rect x="584.96" y="55.13" width="243.44" height="8.69" fill="#ebebeb"/><rect x="584.96" y="64.92" width="243.44" height="8.69" fill="#ebebeb"/><rect x="584.96" y="74.69" width="243.44" height="8.69" fill="#ebebeb"/><rect x="584.96" y="84.48" width="243.44" height="8.69" fill="#ebebeb"/><rect x="584.96" y="94.27" width="243.44" height="8.69" fill="#ebebeb"/><rect x="584.96" y="104.04" width="243.44" height="8.69" fill="#ebebeb"/><rect x="584.96" y="113.83" width="243.44" height="8.69" fill="#ebebeb"/><rect x="808.3" y="33.81" width="1.56" height="200.42" fill="#263238"/><polygon points="811.84 241.49 806.3 241.49 807.71 233.53 810.47 233.53 811.84 241.49" fill="#263238"/><rect x="813.92" y="33.81" width="1.56" height="274.32" fill="#263238"/><polygon points="817.48 313.98 811.94 313.98 813.33 306.02 816.09 306.02 817.48 313.98" fill="#263238"/><rect x="575.27" y="21.72" width="262.82" height="18.19" fill="#dbdbdb"/><path d="M341.41,522.84a13.16,13.16,0,0,1-2.32-.43,20.12,20.12,0,0,1-6.13-2.83,26.33,26.33,0,0,1-7.38-7.71,44,44,0,0,1-5.39-13.08,53.7,53.7,0,0,1-1.71-17.07,35,35,0,0,1,6.5-18.47,29.15,29.15,0,0,1,7.76-7.38,26.72,26.72,0,0,1,5-2.47,27.48,27.48,0,0,1,5.51-1.32c3.78-.52,7.64-.45,11.5-.67A28.75,28.75,0,0,0,366,448.8a12.64,12.64,0,0,0,7-8.62,12,12,0,0,0-9-14.4,11.79,11.79,0,0,0-3-.31,8.52,8.52,0,0,0-4.77,1.76,5.13,5.13,0,0,0-2,4.31,6.91,6.91,0,0,0,6.37,6.16,10.5,10.5,0,0,0,8.2-3.7,19.66,19.66,0,0,0,3.95-7.76,64.14,64.14,0,0,0,1.65-8,132.61,132.61,0,0,0,.76-24.72c-.15-2.89-.26-5.15-.34-6.73,0-.75-.07-1.33-.09-1.76q0-.3,0-.6a4.11,4.11,0,0,1,.08.6c0,.43.09,1,.16,1.75.12,1.53.3,3.8.48,6.73a126.2,126.2,0,0,1-.53,24.81,67.3,67.3,0,0,1-1.61,8.09,20.29,20.29,0,0,1-4.05,8,11.11,11.11,0,0,1-8.67,3.91,7.56,7.56,0,0,1-7-6.77,5.87,5.87,0,0,1,2.24-4.89,9.21,9.21,0,0,1,5.16-1.93,12.76,12.76,0,0,1,13.11,12.4,13,13,0,0,1-2.94,8.57,14.74,14.74,0,0,1-4.78,3.73,29.08,29.08,0,0,1-11.6,2.68c-3.9.23-7.74.15-11.44.67a24.1,24.1,0,0,0-10.21,3.66,28.66,28.66,0,0,0-7.59,7.18,34.45,34.45,0,0,0-6.43,18.12,52.83,52.83,0,0,0,1.6,16.89,44.61,44.61,0,0,0,5.23,13,26,26,0,0,0,7.2,7.69,21,21,0,0,0,6,2.93c.74.22,1.31.35,1.7.43A4,4,0,0,1,341.41,522.84Z" fill="#bcbec0"/><rect x="60.38" y="25.87" width="390.16" height="16.35" fill="#ffc967"/><rect x="75.14" y="54.27" width="85.78" height="55.22" fill="#ffc967"/><rect x="75.14" y="116.44" width="85.78" height="136.84" fill="#ffc967"/><rect x="85.03" y="63.34" width="16.16" height="5.17" rx="2.58" fill="#fff"/><rect x="87.14" y="71.03" width="16.16" height="5.17" rx="2.58" fill="#fff"/><rect x="81.45" y="79.3" width="16.16" height="5.17" rx="2.58" fill="#fff"/><rect x="85.03" y="87.56" width="16.16" height="5.17" rx="2.58" fill="#fff"/><rect x="80.6" y="95.82" width="16.16" height="5.17" rx="2.58" fill="#fff"/><rect x="105.19" y="63.34" width="46.05" height="5.17" rx="2.58" fill="#ffc967"/><rect x="109.41" y="71.03" width="41.83" height="5.17" rx="2.58" fill="#ffc967"/><rect x="102.48" y="79.3" width="48.76" height="5.17" rx="2.58" fill="#ffc967"/><rect x="109.41" y="87.56" width="41.83" height="5.17" rx="2.58" fill="#ffc967"/><rect x="102.48" y="95.82" width="48.76" height="5.17" rx="2.58" fill="#ffc967"/><g opacity="0.2"><rect x="105.19" y="63.34" width="46.05" height="5.17" rx="2.58" fill="#fff"/><rect x="109.41" y="71.03" width="41.83" height="5.17" rx="2.58" fill="#fff"/><rect x="102.48" y="79.3" width="48.76" height="5.17" rx="2.58" fill="#fff"/><rect x="109.41" y="87.56" width="41.83" height="5.17" rx="2.58" fill="#fff"/><rect x="102.48" y="95.82" width="48.76" height="5.17" rx="2.58" fill="#fff"/></g><rect x="80.6" y="125.21" width="17.43" height="5.17" rx="2.58" fill="#fff"/><rect x="85.52" y="133.19" width="16.16" height="5.17" rx="2.58" fill="#fff"/><rect x="81.24" y="141.17" width="16.16" height="5.17" rx="2.58" fill="#fff"/><rect x="81.87" y="149.43" width="16.16" height="5.17" rx="2.58" fill="#fff"/><rect x="81.45" y="157.69" width="16.16" height="5.17" rx="2.58" fill="#fff"/><rect x="85.66" y="165.96" width="16.16" height="5.17" rx="2.58" fill="#fff"/><rect x="81.24" y="174.22" width="16.16" height="5.17" rx="2.58" fill="#fff"/><rect x="81.24" y="182.27" width="16.16" height="5.17" rx="2.58" fill="#fff"/><rect x="85.52" y="189.23" width="16.16" height="5.17" rx="2.58" fill="#fff"/><rect x="80.6" y="198.18" width="16.16" height="5.17" rx="2.58" fill="#fff"/><rect x="80.04" y="206.03" width="16.16" height="5.17" rx="2.58" fill="#fff"/><rect x="80.04" y="214.08" width="16.16" height="5.17" rx="2.58" fill="#fff"/><rect x="84.33" y="221.04" width="16.16" height="5.17" rx="2.58" fill="#fff"/><rect x="79.41" y="229.99" width="16.16" height="5.17" rx="2.58" fill="#fff"/><rect x="84.33" y="238.5" width="16.16" height="5.17" rx="2.58" fill="#fff"/><rect x="102.03" y="125.21" width="49.21" height="5.17" rx="2.58" fill="#ffc967"/><rect x="110.88" y="132.9" width="40.35" height="5.17" rx="2.58" fill="#ffc967"/><rect x="102.25" y="141.17" width="48.76" height="5.17" rx="2.58" fill="#ffc967"/><rect x="110.88" y="149.43" width="40.35" height="5.17" rx="2.58" fill="#ffc967"/><rect x="111.81" y="157.69" width="39.43" height="5.17" rx="2.58" fill="#ffc967"/><rect x="105.69" y="165.96" width="45.32" height="5.17" rx="2.58" fill="#ffc967"/><rect x="105.69" y="174.22" width="45.32" height="5.17" rx="2.58" fill="#ffc967"/><rect x="111.81" y="182.27" width="39.43" height="5.17" rx="2.58" fill="#ffc967"/><rect x="121.3" y="190.32" width="29.94" height="5.17" rx="2.58" fill="#ffc967"/><rect x="103.06" y="198.18" width="48.17" height="5.17" rx="2.58" fill="#ffc967"/><rect x="103.06" y="213.88" width="48.17" height="5.17" rx="2.58" fill="#ffc967"/><rect x="103.06" y="206.03" width="48.17" height="5.17" rx="2.58" fill="#ffc967"/><rect x="103.06" y="222.8" width="48.17" height="5.17" rx="2.58" fill="#ffc967"/><rect x="103.06" y="238.5" width="48.17" height="5.17" rx="2.58" fill="#ffc967"/><rect x="103.06" y="230.65" width="48.17" height="5.17" rx="2.58" fill="#ffc967"/><g opacity="0.2"><rect x="102.03" y="125.21" width="49.21" height="5.17" rx="2.58" fill="#fff"/><rect x="110.88" y="132.9" width="40.35" height="5.17" rx="2.58" fill="#fff"/><rect x="102.25" y="141.17" width="48.76" height="5.17" rx="2.58" fill="#fff"/><rect x="110.88" y="149.43" width="40.35" height="5.17" rx="2.58" fill="#fff"/><rect x="111.81" y="157.69" width="39.43" height="5.17" rx="2.58" fill="#fff"/><rect x="105.69" y="165.96" width="45.32" height="5.17" rx="2.58" fill="#fff"/><rect x="105.69" y="174.22" width="45.32" height="5.17" rx="2.58" fill="#fff"/><rect x="111.81" y="182.27" width="39.43" height="5.17" rx="2.58" fill="#fff"/><rect x="121.3" y="190.32" width="29.94" height="5.17" rx="2.58" fill="#fff"/><rect x="103.06" y="198.18" width="48.17" height="5.17" rx="2.58" fill="#fff"/><rect x="103.06" y="213.88" width="48.17" height="5.17" rx="2.58" fill="#fff"/><rect x="103.06" y="206.03" width="48.17" height="5.17" rx="2.58" fill="#fff"/><rect x="103.06" y="222.8" width="48.17" height="5.17" rx="2.58" fill="#fff"/><rect x="103.06" y="238.5" width="48.17" height="5.17" rx="2.58" fill="#fff"/><rect x="103.06" y="230.65" width="48.17" height="5.17" rx="2.58" fill="#fff"/></g><rect x="27.68" y="204.61" width="84.13" height="40.27" fill="#ff6d60"/><polygon points="51.2 222.11 51.2 218.23 37.29 223.9 37.29 227.61 51.2 233.51 51.2 229.07 42.98 225.87 51.2 222.11" fill="#ffc967"/><polygon points="65.19 222.11 65.19 218.23 79.11 223.9 79.11 227.61 65.19 233.51 65.19 229.07 73.42 225.87 65.19 222.11" fill="#ffc967"/><polygon points="60.08 211.48 65.75 211.48 56.27 238.02 51.2 238.02 60.08 211.48" fill="#ffc967"/><circle cx="84.26" cy="232.85" r="3.18" fill="#ffc967"/><circle cx="91.56" cy="232.85" r="3.18" fill="#ffc967"/><circle cx="99.02" cy="232.85" r="3.18" fill="#ffc967"/><polygon points="186.12 57.71 186.12 53.83 172.2 59.5 172.2 63.21 186.12 69.11 186.12 64.67 177.89 61.47 186.12 57.71" fill="#ffc967"/><polygon points="200.1 57.71 200.1 53.83 214.02 59.5 214.02 63.21 200.1 69.11 200.1 64.67 208.33 61.47 200.1 57.71" fill="#ffc967"/><polygon points="194.99 47.08 200.66 47.08 191.18 73.62 186.12 73.62 194.99 47.08" fill="#ffc967"/><circle cx="219.17" cy="68.45" r="3.18" fill="#ffc967"/><circle cx="226.47" cy="68.45" r="3.18" fill="#ffc967"/><circle cx="233.93" cy="68.45" r="3.18" fill="#ffc967"/><circle cx="75.17" cy="34.05" r="3.18" fill="#fff"/><circle cx="84.69" cy="34.05" r="3.18" fill="#fff"/><circle cx="94.36" cy="34.05" r="3.18" fill="#fff"/><rect x="169.79" y="90.65" width="24.46" height="5.17" rx="2.58" fill="#ff6d60"/><rect x="169.79" y="100.66" width="24.46" height="5.17" rx="2.58" fill="#ff6d60"/><rect x="169.79" y="110.67" width="24.46" height="5.17" rx="2.58" fill="#ff6d60"/><rect x="169.79" y="120.68" width="24.46" height="5.17" rx="2.58" fill="#ff6d60"/><rect x="169.79" y="129.7" width="24.46" height="5.17" rx="2.58" fill="#ff6d60"/><rect x="169.79" y="139.71" width="24.46" height="5.17" rx="2.58" fill="#ff6d60"/><rect x="169.79" y="149.72" width="24.46" height="5.17" rx="2.58" fill="#ff6d60"/><rect x="169.79" y="159.73" width="24.46" height="5.17" rx="2.58" fill="#ff6d60"/><rect x="296.72" y="120.68" width="133.14" height="5.17" rx="2.58" fill="#ffc967"/><rect x="169.79" y="79.3" width="184.95" height="5.17" rx="2.58" fill="#ffc967"/><rect x="200.66" y="90.65" width="96.06" height="5.17" rx="2.58" fill="#ffc967"/><rect x="200.66" y="100.66" width="103.44" height="5.17" rx="2.58" fill="#ffc967"/><rect x="200.66" y="110.67" width="133.59" height="5.17" rx="2.58" fill="#ffc967"/><rect x="200.66" y="120.68" width="91" height="5.17" rx="2.58" fill="#ffc967"/><rect x="200.66" y="129.7" width="155.94" height="5.17" rx="2.58" fill="#ffc967"/><rect x="200.66" y="139.71" width="101.75" height="5.17" rx="2.58" fill="#ffc967"/><rect x="200.66" y="149.72" width="231" height="5.17" rx="2.58" fill="#ffc967"/><rect x="200.66" y="159.73" width="86.15" height="5.17" rx="2.58" fill="#ffc967"/><g opacity="0.2"><rect x="169.79" y="79.3" width="184.95" height="5.17" rx="2.58" fill="#fff"/><rect x="200.66" y="90.65" width="96.06" height="5.17" rx="2.58" fill="#fff"/><rect x="200.66" y="100.66" width="103.44" height="5.17" rx="2.58" fill="#fff"/><rect x="200.66" y="110.67" width="133.59" height="5.17" rx="2.58" fill="#fff"/><rect x="200.66" y="120.68" width="91" height="5.17" rx="2.58" fill="#fff"/><rect x="200.66" y="129.7" width="155.94" height="5.17" rx="2.58" fill="#fff"/><rect x="200.66" y="139.71" width="101.75" height="5.17" rx="2.58" fill="#fff"/><rect x="200.66" y="149.72" width="231" height="5.17" rx="2.58" fill="#fff"/><rect x="200.66" y="159.73" width="86.15" height="5.17" rx="2.58" fill="#fff"/></g><rect x="303.44" y="90.65" width="37.86" height="5.17" fill="#ffc967"/><path d="M432.17,113.76H360v-35h72.18Zm-71.18-1h70.18v-33H361Z" fill="#ff6d60"/><path d="M258,253.78H169.29V170.63H258Zm-87.72-1H257V171.63H170.29Z" fill="#ff6d60"/><rect x="265.22" y="171.13" width="126.65" height="4.28" fill="#ffc967"/><path d="M394.2,365.65s12-11.7,33.33-5.55l12.39,15-12.39,4H419v-8H392.84Z" fill="#fed0bc"/><path d="M527.49,413l37.84-187.81A19.56,19.56,0,0,1,585,209.47l89.35,2.33a19.57,19.57,0,0,1,18.5,24.2L649,416.07S576.44,446.8,527.49,413Z" fill="#ff6d60"/><path d="M527.49,413l37.84-187.81A19.56,19.56,0,0,1,585,209.47l89.35,2.33a19.57,19.57,0,0,1,18.5,24.2L649,416.07S576.44,446.8,527.49,413Z" opacity="0.2" style="isolation:isolate"/><path d="M517.76,413l37.83-187.81a19.57,19.57,0,0,1,19.7-15.7l89.34,2.33a19.57,19.57,0,0,1,18.5,24.2l-43.91,180S566.7,446.8,517.76,413Z" fill="#ff6d60"/><path d="M587.15,248.39s-31.93,28.28-25.08,66.94L550,418.1l12.55,10.75,50.63,3.44,20.57-33.63,9.12-66,8.53-62.87-17.65-30.37H619Z" fill="#fff"/><rect x="560.42" y="483" width="8.76" height="128.19" fill="#ff6d60"/><rect x="472.54" y="451.08" width="158.29" height="24.78" fill="#ff6d60"/><path d="M451.19,585.33l.23,23.79s-12.37,8.5-24.36,1.32l-2-22.81Z" fill="#fed0bc"/><path d="M375.41,633.71l79.48-7-2-22.89A2,2,0,0,0,451,602a5.84,5.84,0,0,0-5.09,1.95,5.68,5.68,0,0,1-4.63,2.4c-2.49-.08-5.67-1.17-7.65-5.52,0,0-5.9-10.83-12.93-.56l-18.81,20.46a13,13,0,0,1-10.34,4.24C386.21,624.58,378.58,625.66,375.41,633.71Z" fill="#ffc967"/><rect x="371.7" y="630.17" width="87.03" height="8.19" rx="2.6" transform="translate(-54.22 39.01) rotate(-5.05)" fill="#373660"/><path d="M560.23,591.79l-4.37,26.32s10.88,10.76,24.11,4.12l6-25Z" fill="#fed0bc"/><path d="M627.84,652.81,550,635.27l5.06-22.42a2,2,0,0,1,2.11-1.58,5.79,5.79,0,0,1,4.78,2.6,5.71,5.71,0,0,0,4.28,3c2.48.25,5.77-.41,8.32-4.46,0,0,7.28-9.94,12.89,1.17l15.91,22.79A13,13,0,0,0,613,642C618.35,642.33,625.77,644.41,627.84,652.81Z" fill="#ffc967"/><rect x="584.25" y="604.6" width="8.19" height="87.03" rx="2.6" transform="translate(-173.26 1079.58) rotate(-77.3)" fill="#373660"/><path d="M590.91,253.88s-14.29,36.68,12.86,41.44c0,0,26.68,4.29,30-29.53,0,0-.5-15.35-4.85-21.77C628.93,244,613.77,261,590.91,253.88Z" fill="#fed0bc"/><path d="M590.19,254.58C573.75,269.34,569,347.72,569,347.72c-.45,60.49-11,73.35-11,73.35-18.57-3.81-40.28-8.09-40.28-8.09,3.85-17.09,13.13-68.6,13.13-68.6-42.87,43.83-81,42.87-81,42.87L427.53,360.1c49.63-19,97.55-68.7,111.05-83.46a24.15,24.15,0,0,1,9-6.15c26.8-10.5,35.49-22.1,35.49-22.1A32.89,32.89,0,0,0,590.19,254.58Z" fill="#ffc967"/><path d="M619,415.36s7.15-53.35,14.77-76.69c0,0,17.93-75-4.85-94.65a22.82,22.82,0,0,0,1.84-9.18s19.21,20,34.45,25.71c0,0,34.77,9.05,39.54,47.63,0,0,4.11,44.8,3.39,64a7.19,7.19,0,0,1-7.18,6.91l-35.9.05s-8,25.72-4.14,43.82C660.93,423,650.45,405.83,619,415.36Z" fill="#ffc967"/><path d="M668.55,306.75c.65,3.74,1.3,7.48,2,11.2s1.42,7.45,2.22,11.15,1.65,7.39,2.65,11c.51,1.82,1.06,3.63,1.72,5.39a21.59,21.59,0,0,0,1.1,2.57,6.27,6.27,0,0,0,1.51,2.13l.77.59-.93.19q-5.85,1.21-11.66,2.63c-3.88.93-7.73,1.94-11.57,3s-7.67,2.18-11.44,3.46a106.07,106.07,0,0,0-11.15,4.31,93.6,93.6,0,0,1,11-4.72c3.76-1.37,7.57-2.56,11.4-3.71s7.69-2.14,11.57-3.11,7.75-1.89,11.67-2.7l-.17.78a7,7,0,0,1-1.76-2.46,23,23,0,0,1-1.12-2.66c-.66-1.8-1.2-3.63-1.7-5.47-1-3.67-1.82-7.38-2.54-11.11s-1.38-7.46-2-11.21S669,310.52,668.55,306.75Z" opacity="0.2" style="isolation:isolate"/><path d="M540.71,475.86h47.64v7.33a3.64,3.64,0,0,1-3.64,3.64H544.35a3.64,3.64,0,0,1-3.64-3.64h0v-7.33Z" fill="#ff6d60"/><path d="M540.71,475.86h47.64v7.33a3.64,3.64,0,0,1-3.64,3.64H544.35a3.64,3.64,0,0,1-3.64-3.64h0v-7.33Z" opacity="0.2" style="isolation:isolate"/><polygon points="203.17 632.09 252.71 390.11 260.33 390.11 212.7 632.09 203.17 632.09" fill="#ff6d60"/><polygon points="276.53 390.11 323.21 632.09 331.78 632.09 284.15 390.11 276.53 390.11" fill="#ff6d60"/><g opacity="0.4"><polygon points="203.17 632.09 252.71 390.11 260.33 390.11 212.7 632.09 203.17 632.09"/><polygon points="276.53 390.11 323.21 632.09 331.78 632.09 284.15 390.11 276.53 390.11"/></g><polygon points="668.32 632.09 716.9 390.11 724.76 390.11 679.51 632.09 668.32 632.09" fill="#ff6d60"/><polygon points="788.35 632.09 741.2 390.11 749.05 390.11 794.78 632.09 788.35 632.09" fill="#ff6d60"/><g opacity="0.2"><polygon points="668.32 632.09 716.9 390.11 724.76 390.11 679.51 632.09 668.32 632.09"/><polygon points="788.35 632.09 741.2 390.11 749.05 390.11 794.78 632.09 788.35 632.09"/></g><path d="M265.93,202.14l13.55,143.79a4.08,4.08,0,0,0,4.06,3.69H515.69a4.08,4.08,0,0,0,4.08-4.08,2.81,2.81,0,0,0,0-.29l-10.62-143.8a4.09,4.09,0,0,0-4.07-3.77H270a4.09,4.09,0,0,0-4.09,4.07C265.91,201.88,265.92,202,265.93,202.14Z" fill="#d1d3d4"/><polygon points="384.66 371.1 411.81 266.09 422.17 266.09 395.73 371.1 384.66 371.1" fill="#d1d3d4"/><rect x="317.49" y="371.1" width="101.46" height="8.05" fill="#d1d3d4"/><circle cx="383.87" cy="244.36" r="9.52" fill="#bcbec0"/><path d="M577.44,371.1s11.89-18.4,26.33-19c0,0,20.31,1.51,23.69,12.25h6.32a38.61,38.61,0,0,1,0,15.37l-14.77-.6s1.07-8.06-8-8.06Z" fill="#fed0bc"/><path d="M530.89,344.38l12.79-11.75s11.86,69.63-16.19,85.47l-9.73-5.1Z" opacity="0.2" style="isolation:isolate"/><line x1="573" y1="210.04" x2="578.83" y2="210.04" fill="none" stroke="#fea74b" stroke-miterlimit="10"/><path d="M485.87,371.1H614.18a4.83,4.83,0,0,1,4.83,4.83h0v3.22H481v-3.22a4.83,4.83,0,0,1,4.83-4.83Z" fill="#d1d3d4"/><path d="M519,413s-66.68-24.3-74.78,16.19c0,0-24.77,49.54-25.25,165.77,0,0,26.2.47,41-14.29,0,0,11.91-84.79,41-121.47l101,1.43S585.29,539.23,553.86,595c0,0,14.74,15.72,36.43,10,0,0,60.26-100,69.31-124.8,0,0,25.25-37.16,1.43-57.16,0,0-11.91-19.53-41.92-7.62,0,0-35.87,15.06-58.51,6.74A51.06,51.06,0,0,0,553,420Z" fill="#373660"/><path d="M633.78,364.39a29.87,29.87,0,0,1,1.26,7.38,26.8,26.8,0,0,1-.68,7.55l-.58-.77q7.46-.18,14.91-.25h14.92q7.46,0,14.91.23c5,.13,10,.31,14.92.59-5,.28-9.94.47-14.92.61s-9.94.22-14.91.26H648.7q-7.47-.06-14.92-.23H633l.21-.75a25.31,25.31,0,0,0,.8-3.55,31.91,31.91,0,0,0,.34-3.66,34.55,34.55,0,0,0-.56-7.39Z" opacity="0.2" style="isolation:isolate"/><polygon points="362.56 266.09 335.52 371.1 392.84 371.1 418.95 266.09 362.56 266.09" fill="#bcbec0"/><rect x="630.83" y="375.13" width="153.15" height="4.03" fill="#bcbec0"/><polygon points="718.57 286.59 688.09 375.13 783.99 375.13 816.38 286.59 718.57 286.59" fill="#d1d3d4"/><circle cx="758.9" cy="332.63" r="6.67" fill="#bcbec0"/><rect x="203.17" y="379.16" width="595.42" height="10.96" fill="#ff6d60"/><path d="M582.73,364.39a46,46,0,0,1,11.89-1.72,28.14,28.14,0,0,1,6,.53A9.24,9.24,0,0,1,606,366a7.53,7.53,0,0,0-2.6-1.36,17.69,17.69,0,0,0-2.87-.62,41.36,41.36,0,0,0-5.89-.3c-2,0-4,.13-5.94.25S584.73,364.21,582.73,364.39Z" fill="#f4a57f"/><path d="M590.32,357.76a46.12,46.12,0,0,1,11.9-1.72,28.09,28.09,0,0,1,6,.53,9.32,9.32,0,0,1,5.34,2.74A7.68,7.68,0,0,0,611,358a17.35,17.35,0,0,0-2.86-.62,41.36,41.36,0,0,0-5.89-.3c-2,0-4,.12-5.94.25S592.32,357.58,590.32,357.76Z" fill="#f4a57f"/><path d="M566.67,266.27s13.5,0,13.36,8.8c0,0,4.41-17.35,13.68-24.34l-8-6.39S577.07,248,566.67,266.27Z" fill="#ffc967"/><path d="M566.67,266.27s13.5,0,13.36,8.8c0,0,4.41-17.35,13.68-24.34l-8-6.39S577.07,248,566.67,266.27Z" fill="#fff" opacity="0.2" style="isolation:isolate"/><path d="M640.13,273s7.67-9.37,16.68,2.05c0,0,2.1-33.46-30.17-41.14l-3.22,11.24S638.39,244.34,640.13,273Z" fill="#ffc967"/><path d="M640.13,273s7.67-9.37,16.68,2.05c0,0,2.1-33.46-30.17-41.14l-3.22,11.24S638.39,244.34,640.13,273Z" fill="#fff" opacity="0.2" style="isolation:isolate"/><path d="M573,184.38s.9,13.39,5.59,16.62l3.28-11.3S575.48,188.4,573,184.38Z"/><ellipse cx="603.77" cy="212.44" rx="26.2" ry="41.44" fill="#fed0bc"/><path d="M570.63,180.61c2.19,4.6,6.6,9.66,15.35,9.4a23.35,23.35,0,0,0,12.21-4.08c4-2.65,10.87-6.19,14.16-1.6,0,0-11.91,3.81-12.87,9a52.47,52.47,0,0,1,10.17-5.61,12,12,0,0,1,12.84,2.59A25.77,25.77,0,0,1,629.88,209s8-1.84,9.76-19.4a28.62,28.62,0,0,0-3.5-17c-5-8.72-15.71-18.65-37.61-8.75,0,0-3.42,2.64-8.58-1.12a13.11,13.11,0,0,0-5.86-2.47c-3.82-.54-9.39-.11-12.9,5.61A15.46,15.46,0,0,0,570.63,180.61Z"/><path d="M578.4,222.81s3.46,11.42,7.39,8.56c0,0,7-11.79,18-1.07,0,0,11.36,11.9,25.63-9.23,0,0,8.55,30.66-16.1,35.67,0,0-26.8,6.78-33.58-15.37A103.92,103.92,0,0,1,578.4,222.81Z"/><path d="M581.59,221.53a9.09,9.09,0,1,1,9.09-9.09A9.1,9.1,0,0,1,581.59,221.53Zm0-17.18a8.09,8.09,0,1,0,8.09,8.09A8.1,8.1,0,0,0,581.59,204.35Z" fill="#ffc967"/><path d="M604.62,221.53a9.09,9.09,0,1,1,9.09-9.09A9.1,9.1,0,0,1,604.62,221.53Zm0-17.18a8.09,8.09,0,1,0,8.09,8.09A8.1,8.1,0,0,0,604.62,204.35Z" fill="#ffc967"/><rect x="613.21" y="210.24" width="16.76" height="1" fill="#ffc967"/><path d="M592.07,224.57h0l-.26-.11.12-.25c1.91-4,1.46-12.25,1.45-12.34h.54c0,.34.44,8.15-1.39,12.33a6,6,0,0,0,3.4.18l.17.5A6.48,6.48,0,0,1,592.07,224.57Z" fill="#f4a57f"/><ellipse cx="603.78" cy="213.9" rx="2.38" ry="1.62" transform="translate(367.59 809.31) rotate(-87.87)"/><ellipse cx="581.6" cy="213.85" rx="1.62" ry="2.38" transform="translate(-33.52 138.89) rotate(-13.24)"/><path d="M609.39,201.18a9.62,9.62,0,0,0-5.85-1.57c-1.46.11-2.79.55-2.79,1.78,0,0-.47,1.56,9,0Z"/><path d="M578.7,201.82a9.52,9.52,0,0,1,5.57-2.35c1.47-.09,2.84.17,3,1.39,0,0,.68,1.48-8.88,1.22Z"/><path d="M597.07,236.93h-1.71a14.86,14.86,0,0,1-1.79-.18c-1.63-.22-3.16-.42-3.79.75a2.81,2.81,0,0,0,.15,2.22,4.86,4.86,0,0,0,3.25,2.76,7.11,7.11,0,0,0,1.59.24A5.5,5.5,0,0,0,599,241a3.58,3.58,0,0,0,1.1-2.72A1.33,1.33,0,0,0,599,237,7,7,0,0,0,597.07,236.93Z" fill="#f4a57f"/><path d="M595.33,237.4c-2.3-.12-4.47-.88-5.12.31-.47.85.43,4.36,4.57,4.5,2.9.09,5-2.29,4.81-3.94C599.46,237,597.64,237.53,595.33,237.4Z"/><path d="M590.21,237.71a1.68,1.68,0,0,0-.09.32c3.17,2.21,7.6,2.07,8.67-.55-.77-.16-2,0-3.46-.08C593,237.28,590.86,236.52,590.21,237.71Z" fill="#fff"/><ellipse cx="630.79" cy="213.87" rx="7.17" ry="4.29" transform="translate(275.18 777.05) rotate(-76.46)" fill="#fed0bc"/><rect x="590.19" y="210.24" width="5.83" height="1" fill="#ffc967"/><rect x="496.75" y="25.87" width="49.96" height="40.41" fill="#ff6d60"/><path d="M515.54,56.53a2.71,2.71,0,0,1-1.61-1.2,5,5,0,0,1-.47-2.37V49.35a5.54,5.54,0,0,0-.11-1.22,1.25,1.25,0,0,0-.42-.68,2,2,0,0,0-1-.31V45a2,2,0,0,0,1-.31,1.25,1.25,0,0,0,.42-.68,5.54,5.54,0,0,0,.11-1.22V39.2a5,5,0,0,1,.47-2.38,2.7,2.7,0,0,1,1.61-1.19,11.36,11.36,0,0,1,3.23-.41v2.87a3.93,3.93,0,0,0-1.13.24.66.66,0,0,0-.38.67v4a3,3,0,0,1-.63,2.1,3.43,3.43,0,0,1-1.71.93,3.43,3.43,0,0,1,1.71.93,2.9,2.9,0,0,1,.63,2.08v4a.67.67,0,0,0,.39.69,3.58,3.58,0,0,0,1.12.21v2.9A11.7,11.7,0,0,1,515.54,56.53Z" fill="#fff"/><path d="M524.72,54a3.41,3.41,0,0,0,1.1-.21.69.69,0,0,0,.38-.69v-4a2.89,2.89,0,0,1,.64-2.09,3.22,3.22,0,0,1,1.73-.92,3.25,3.25,0,0,1-1.74-.92,3,3,0,0,1-.63-2.11V39a.66.66,0,0,0-.38-.67,4.08,4.08,0,0,0-1.1-.24V35.22a11.3,11.3,0,0,1,3.22.41,2.72,2.72,0,0,1,1.59,1.19A4.77,4.77,0,0,1,530,39.2v3.61a3.34,3.34,0,0,0,.29,1.62,1.56,1.56,0,0,0,1.22.59v2.12a1.56,1.56,0,0,0-1.22.59,3.34,3.34,0,0,0-.29,1.62V53a4.85,4.85,0,0,1-.47,2.37,2.7,2.7,0,0,1-1.59,1.2,11.3,11.3,0,0,1-3.22.41Z" fill="#fff"/><rect x="339.28" y="455.98" width="61.89" height="133.23" fill="#d1d3d4"/><path d="M395.85,575.18v-8.61c0-5.57-.06-13.65-.1-23.8,0-20.31-.1-48.9-.17-82.18l.35.36H344.16l.37-.38c0,44.51-.07,84.93-.1,114.59l-.27-.27L382,575l10.33.07h.1l-10.4.2-38,.15h-.27v-.27c0-29.66-.06-70.08-.1-114.59v-.37h52.51v.35c-.07,33.37-.13,62.05-.17,82.42,0,10.12-.08,18.17-.1,23.72v7.91C395.87,575,395.85,575.18,395.85,575.18Z" fill="#bcbec0"/><path d="M392.66,470.29s0-.5-.07-1.39-.06-2.23-.1-3.86l.17.16c-8,.13-25.18.21-45,.21h0L348,465h0v5.23l-.37-.37c12.59,0,23.78.09,31.88.16l9.58.11,2.62.05a6.7,6.7,0,0,1,1,.05,4,4,0,0,1-.85,0l-2.53,0-9.5.11c-8.08.08-19.4.15-32.15.16h-.37V465h0l.37-.37h0c19.85,0,37,.08,45,.21h.16V465c0,1.67-.07,3-.09,4A9.32,9.32,0,0,1,392.66,470.29Z" fill="#bcbec0"/><path d="M352.16,474.06c0,.21-.93.38-2.08.38s-2.07-.17-2.07-.38.93-.37,2.07-.37S352.16,473.86,352.16,474.06Z" fill="#bcbec0"/><path d="M391.45,480.94c0,.2-9.58.37-21.4.37s-21.41-.17-21.41-.37,9.59-.37,21.41-.37S391.45,480.73,391.45,480.94Z" fill="#bcbec0"/><path d="M391.64,489.24c0,.21-9.42.37-21,.37s-21-.16-21-.37,9.41-.37,21-.37S391.64,489,391.64,489.24Z" fill="#bcbec0"/><circle cx="370.05" cy="508.64" r="3.41" fill="#bcbec0"/><path d="M360.45,508.49c0,.2-2,.37-4.55.37s-4.56-.17-4.56-.37,2-.38,4.56-.38S360.45,508.28,360.45,508.49Z" fill="#bcbec0"/><path d="M388.1,507.61c0,.2-1.94.37-4.34.37s-4.33-.17-4.33-.37,1.94-.37,4.33-.37S388.1,507.4,388.1,507.61Z" fill="#bcbec0"/><rect x="56.53" y="314.12" width="57.84" height="41.23" fill="#ff6d60"/><path d="M114.82,320.23c0,.14-13,.26-29.16.26s-29.15-.12-29.15-.26S69.56,320,85.66,320,114.82,320.09,114.82,320.23Z" fill="#fff"/><path d="M61.25,317.22a.79.79,0,1,1-.89-.67h.11A.74.74,0,0,1,61.25,317.22Z" fill="#fff"/><path d="M64.09,317.22a.79.79,0,1,1-.89-.67h.11A.74.74,0,0,1,64.09,317.22Z" fill="#fff"/><ellipse cx="66.15" cy="317.22" rx="0.78" ry="0.68" fill="#fff"/><path d="M77.92,336.68c0,2.47-1.79,4-4.75,4H70.05v3.67H68.82V332.69h4.35C76.13,332.69,77.92,334.19,77.92,336.68Zm-1.23,0c0-1.86-1.23-2.93-3.55-2.93H70.05v5.82h3.09C75.46,339.57,76.69,338.5,76.69,336.68Z" fill="#fff"/><path d="M90.29,332.69v11.63H89.08V339H81.8v5.37H80.57V332.69H81.8v5.18h7.28v-5.18Z" fill="#fff"/><path d="M103.17,336.68c0,2.47-1.79,4-4.75,4H95.3v3.67H94.07V332.69h4.35C101.38,332.69,103.17,334.19,103.17,336.68Zm-1.23,0c0-1.86-1.23-2.93-3.55-2.93H95.3v5.82h3.09C100.71,339.57,101.94,338.5,101.94,336.68Z" fill="#fff"/><rect x="198.89" y="282.93" width="52.29" height="37.27" fill="#ffc967"/><path d="M216.52,300.23v7.4h-1.71v-3h-3.36v3h-1.71v-7.4h1.71v2.92h3.36v-2.92Z" fill="#fff"/><path d="M219.81,301.63h-2.37v-1.4h6.45v1.4h-2.37v6h-1.71Z" fill="#fff"/><path d="M224.81,300.23h1.71v6h3.71v1.39h-5.42Z" fill="#fff"/><path d="M237.92,307.63v-4.44l-2.18,3.66H235l-2.16-3.56v4.34h-1.61v-7.4h1.42l2.77,4.6,2.72-4.6h1.41v7.4Z" fill="#fff"/><path d="M251.58,288.46c0,.09-11.8.16-26.35.16s-26.36-.07-26.36-.16,11.8-.17,26.36-.17S251.58,288.37,251.58,288.46Z" fill="#fff"/><path d="M203.16,285.74a.67.67,0,0,1-.71.62.62.62,0,0,1-.62-.62.62.62,0,0,1,.62-.62h0A.67.67,0,0,1,203.16,285.74Z" fill="#fff"/><path d="M205.72,285.74a.66.66,0,0,1-.7.62h0a.63.63,0,0,1-.73-.51.63.63,0,0,1,.51-.73H205a.66.66,0,0,1,.7.62Z" fill="#fff"/><path d="M208.29,285.74a.67.67,0,0,1-.71.62.62.62,0,0,1-.62-.62.62.62,0,0,1,.62-.62h0A.67.67,0,0,1,208.29,285.74Z" fill="#fff"/><path d="M494.22,148.34a7.2,7.2,0,0,1,7.09-7.32,2.67,2.67,0,0,1,.4,0,6.88,6.88,0,0,1,5.13,2l-.65.68a6,6,0,0,0-4.44-1.71,6.36,6.36,0,1,0-.5,12.71,4.17,4.17,0,0,0,.5,0,6.07,6.07,0,0,0,4.44-1.74l.65.68a6.88,6.88,0,0,1-5.13,2,7.23,7.23,0,0,1-7.49-6.94Z" fill="#ff6d60"/><path d="M508.83,153.71l.47-.79a6.93,6.93,0,0,0,4.76,1.82c2.89,0,4.17-1.26,4.17-2.83,0-4.33-9-1.73-9-7,0-2,1.57-3.84,5.11-3.84a7.77,7.77,0,0,1,4.36,1.3l-.4.84a7.21,7.21,0,0,0-4-1.21c-2.8,0-4.06,1.3-4.06,2.89,0,4.33,9,1.77,9,7,0,2-1.63,3.82-5.19,3.82A7.43,7.43,0,0,1,508.83,153.71Z" fill="#ff6d60"/><path d="M521.39,153.71l.47-.79a6.86,6.86,0,0,0,4.77,1.82c2.88,0,4.16-1.26,4.16-2.83,0-4.33-9-1.73-9-7,0-2,1.57-3.84,5.12-3.84a7.74,7.74,0,0,1,4.35,1.3l-.39.84a7.21,7.21,0,0,0-4-1.21c-2.81,0-4.07,1.3-4.07,2.89,0,4.33,9,1.77,9,7,0,2-1.63,3.82-5.2,3.82A7.4,7.4,0,0,1,521.39,153.71Z" fill="#ff6d60"/><path d="M544.14,167.12v-3c0-1.94,0-4.75,0-8.35,0-7.22-.06-17.58-.1-30.22l.2.2H479.88l.25-.25v41.54l-.23-.24,46.27.12,13.27.06h.07l-13.22.06-46.42.12h-.23v-42h.26l64.31,0h.2v.2c0,12.69-.08,23.09-.11,30.34,0,3.58,0,6.39,0,8.31v2.16A3.77,3.77,0,0,1,544.14,167.12Z" fill="#ff6d60"/><path d="M544.14,131.74c0,.14-14.41.25-32.17.25s-32.18-.11-32.18-.25,14.41-.25,32.18-.25S544.14,131.6,544.14,131.74Z" fill="#ff6d60"/><path d="M484.58,128.71a.75.75,0,0,1-.79.69.7.7,0,0,1-.81-.57.71.71,0,0,1,.57-.81,1,1,0,0,1,.24,0A.75.75,0,0,1,484.58,128.71Z" fill="#ff6d60"/><path d="M487.44,128.71a.75.75,0,0,1-.79.69.7.7,0,0,1-.81-.57.71.71,0,0,1,.57-.81,1,1,0,0,1,.24,0A.75.75,0,0,1,487.44,128.71Z" fill="#ff6d60"/><path d="M490.3,128.71a.75.75,0,0,1-.79.69.7.7,0,0,1-.81-.57.71.71,0,0,1,.57-.81,1,1,0,0,1,.24,0A.75.75,0,0,1,490.3,128.71Z" fill="#ff6d60"/><path d="M142.48,513.22c6,5,4,34.4,22.76,21.75s-13.2-20.14-11.38-27.31c2.56-10,44.77,2,37.69-17.2s-32.32,9.68-39,2.53c-6.1-6.58,24.28-30.36,10.12-34.4s-11.15,30.35-20.24,30.35c-7.1,0-5.77-32.88-18.82-21.25s15.47,23.1,11.74,30.32c-2.84,5.49-25.29-8.06-24.28,4.59S136.08,507.93,142.48,513.22Z" fill="#cecece"/><path d="M134.36,560.26a.5.5,0,0,1-.5-.48c-1.51-44.72,12.1-61.75,12.23-61.92a.51.51,0,0,1,.71-.06.49.49,0,0,1,.07.69h0c-.13.16-13.5,17-12,61.25a.5.5,0,0,1-.48.51Z" fill="#a6a6a6"/><path d="M173.11,521.61c-2.42-4.87-22.49-8.2-11-18.77s11.45,12.09,16.56,12c7.15-.12,5.76-30.42,17.56-22.6s-11.66,20.19-7.9,25.78c3.45,5.15,24.27-11.49,24.74-1.32s-22.18,2.64-23.63,8.77c-1.13,4.77,21.19,9.11,11.29,16s-13.07-14.07-18.51-12.71c-4.15,1,1.39,18.29-6.95,15.59S175.65,526.71,173.11,521.61Z" fill="#dbdbdb"/><path d="M140.77,560.26h-.05a.51.51,0,0,1-.45-.54c1.2-13.08,5.89-23.06,13.94-29.68,12.57-10.33,29.15-8.73,29.32-8.72a.52.52,0,0,1,.45.55.48.48,0,0,1-.52.45h0c-.16,0-16.36-1.56-28.59,8.5-7.84,6.44-12.4,16.19-13.57,29A.51.51,0,0,1,140.77,560.26Z" fill="#a6a6a6"/><path d="M109.32,517.27c-6,5-4,34.4-22.76,21.75s13.21-20.15,11.38-27.31c-2.55-10-44.77,2-37.68-17.2s32.31,9.69,39,2.53c6.09-6.57-24.28-30.35-10.12-34.4S100.25,493,109.37,493c7.1,0,5.78-32.89,18.83-21.25s-15.48,23.1-11.74,30.32c2.83,5.49,25.29-8.06,24.28,4.58S115.69,512,109.32,517.27Z" fill="#92e3a9"/><path d="M109.32,517.27c-6,5-4,34.4-22.76,21.75s13.21-20.15,11.38-27.31c-2.55-10-44.77,2-37.68-17.2s32.31,9.69,39,2.53c6.09-6.57-24.28-30.35-10.12-34.4S100.25,493,109.37,493c7.1,0,5.78-32.89,18.83-21.25s-15.48,23.1-11.74,30.32c2.83,5.49,25.29-8.06,24.28,4.58S115.69,512,109.32,517.27Z" fill="#dbdbdb"/><path d="M126.77,565.82a.51.51,0,0,1-.5-.45c-4-38.84-21.47-62.6-21.65-62.84a.5.5,0,0,1,.1-.7h0a.51.51,0,0,1,.7.1c.18.24,17.83,24.21,21.85,63.34a.5.5,0,0,1-.45.55h0Z" fill="#a6a6a6"/><path d="M117.69,627.05h27.6a10.18,10.18,0,0,0,10.19-9.34l4.34-51a10.19,10.19,0,0,0-9.31-11H113.35a10.17,10.17,0,0,0-10.16,10.18v.82l4.34,51A10.16,10.16,0,0,0,117.69,627.05Z" fill="#ebebeb"/>        <svg class="mark-sign" viewBox="0 0 384 42" fill="none" xmlns="http://www.w3.org/2000/svg">
            <g opacity="0.05">
                <path d="M0 0H18.36V4.99H5.8V14.04H16.37V19.03H5.8V31.94H0V0Z" fill="black"></path>
                <path d="M22.54 9.00005H28.03V12.9601C28.03 13.8101 27.94 14.5801 27.94 14.5801H28.03C29.07 11.2901 31.81 8.68005 35.32 8.68005C35.86 8.68005 36.35 8.77005 36.35 8.77005V14.3901C36.35 14.3901 35.77 14.3001 35 14.3001C32.57 14.3001 29.83 15.7001 28.75 19.1101C28.39 20.2301 28.25 21.5001 28.25 22.8401V31.9301H22.54V9.00005Z" fill="black"></path>
                <path d="M50.26 8.45996C56.87 8.45996 60.43 13.27 60.43 19.35C60.43 20.03 60.29 21.56 60.29 21.56H44.45C44.81 25.56 47.91 27.63 51.33 27.63C55.02 27.63 57.94 25.11 57.94 25.11L60.15 29.2C60.15 29.2 56.64 32.49 50.93 32.49C43.33 32.49 38.6 27 38.6 20.48C38.6 13.42 43.41 8.46996 50.25 8.46996L50.26 8.45996ZM54.67 17.64C54.58 14.54 52.64 12.87 50.13 12.87C47.21 12.87 45.18 14.67 44.64 17.64H54.68H54.67Z" fill="black"></path>
                <path d="M75.19 8.45996C81.8 8.45996 85.36 13.27 85.36 19.35C85.36 20.03 85.22 21.56 85.22 21.56H69.38C69.74 25.56 72.84 27.63 76.26 27.63C79.95 27.63 82.87 25.11 82.87 25.11L85.08 29.2C85.08 29.2 81.57 32.49 75.86 32.49C68.26 32.49 63.53 27 63.53 20.48C63.53 13.42 68.34 8.46996 75.18 8.46996L75.19 8.45996ZM79.6 17.64C79.51 14.54 77.57 12.87 75.06 12.87C72.14 12.87 70.11 14.67 69.57 17.64H79.61H79.6Z" fill="black"></path>
                <path d="M90.76 25.11C90.76 25.11 93.28 27.63 97.01 27.63C98.63 27.63 100.02 26.91 100.02 25.56C100.02 22.14 88.86 22.59 88.86 15.21C88.86 10.94 92.69 8.45996 97.64 8.45996C102.59 8.45996 105.33 11.07 105.33 11.07L103.21 15.3C103.21 15.3 101.1 13.32 97.59 13.32C96.1 13.32 94.66 13.95 94.66 15.39C94.66 18.63 105.82 18.22 105.82 25.6C105.82 29.42 102.49 32.48 97.05 32.48C91.34 32.48 88.14 29.1 88.14 29.1L90.75 25.1L90.76 25.11Z" fill="black"></path>
                <path d="M107.28 9H113.31L118.08 23.22C118.53 24.57 118.84 26.68 118.89 26.68H118.98C118.98 26.68 119.34 24.56 119.79 23.22L124.56 9H130.59L122.36 31.95H115.61L107.29 9H107.28Z" fill="black"></path>
                <path d="M142.47 36.54C145.98 36.54 148.95 35.06 148.95 30.96V29.61C148.95 29.07 149.04 28.4 149.04 28.4H148.95C147.6 30.42 145.62 31.5 142.56 31.5C135.99 31.5 132.26 26.19 132.26 19.89C132.26 13.59 135.81 8.45996 142.43 8.45996C147.43 8.45996 149.22 11.39 149.22 11.39H149.36C149.36 11.39 149.31 11.12 149.31 10.76V9.00996H154.67V30.55C154.67 38.42 148.55 41.39 142.57 41.39C139.69 41.39 136.63 40.58 134.43 39.41L136.14 35.05C136.14 35.05 139.02 36.53 142.48 36.53L142.47 36.54ZM149.08 19.94C149.08 14.72 146.52 13.33 143.41 13.33C139.95 13.33 138.01 15.85 138.01 19.72C138.01 23.59 140.08 26.69 143.77 26.69C146.52 26.69 149.08 25.11 149.08 19.94Z" fill="black"></path>
                <path d="M160.96 0H166.63V5.08H160.96V0ZM160.96 9H166.67V31.95H160.96V9Z" fill="black"></path>
                <path d="M172.66 0H178.33V23.94C178.33 26.46 179.18 27.09 180.67 27.09C181.12 27.09 181.52 27.05 181.52 27.05V32.04C181.52 32.04 180.67 32.18 179.72 32.18C176.57 32.18 172.66 31.37 172.66 24.8V0Z" fill="black"></path>
                <path d="M185.44 0H191.11V23.94C191.11 26.46 191.96 27.09 193.45 27.09C193.9 27.09 194.3 27.05 194.3 27.05V32.04C194.3 32.04 193.45 32.18 192.5 32.18C189.35 32.18 185.44 31.37 185.44 24.8V0Z" fill="black"></path>
                <path d="M198.22 9H203.93V22.59C203.93 25.38 204.65 27.27 207.48 27.27C211.62 27.27 213.91 23.62 213.91 19.53V9H219.62V31.95H214.13V29.34C214.13 28.44 214.22 27.72 214.22 27.72H214.13C213.01 30.11 210.08 32.49 206.17 32.49C201.26 32.49 198.21 30.01 198.21 23.76V9H198.22Z" fill="black"></path>
                <path d="M226.62 25.11C226.62 25.11 229.14 27.63 232.87 27.63C234.49 27.63 235.88 26.91 235.88 25.56C235.88 22.14 224.72 22.59 224.72 15.21C224.72 10.94 228.55 8.45996 233.5 8.45996C238.45 8.45996 241.19 11.07 241.19 11.07L239.07 15.3C239.07 15.3 236.96 13.32 233.45 13.32C231.96 13.32 230.52 13.95 230.52 15.39C230.52 18.63 241.68 18.22 241.68 25.6C241.68 29.42 238.35 32.48 232.91 32.48C227.2 32.48 224 29.1 224 29.1L226.61 25.1L226.62 25.11Z" fill="black"></path>
                <path d="M247.27 13.9H244.3V9.36H247.4V2.75H252.98V9.36H258.2V13.9H252.98V22.81C252.98 26.59 255.95 27.13 257.52 27.13C258.15 27.13 258.56 27.04 258.56 27.04V32.03C258.56 32.03 257.89 32.17 256.81 32.17C253.61 32.17 247.27 31.23 247.27 23.53V13.9Z" fill="black"></path>
                <path d="M263.25 9.00005H268.74V12.9601C268.74 13.8101 268.65 14.5801 268.65 14.5801H268.74C269.78 11.2901 272.52 8.68005 276.03 8.68005C276.57 8.68005 277.06 8.77005 277.06 8.77005V14.3901C277.06 14.3901 276.48 14.3001 275.71 14.3001C273.28 14.3001 270.54 15.7001 269.46 19.1101C269.1 20.2301 268.96 21.5001 268.96 22.8401V31.9301H263.25V9.00005Z" fill="black"></path>
                <path d="M292.59 17.55H293.35V17.24C293.35 14.22 291.46 13.19 288.94 13.19C285.66 13.19 282.64 15.39 282.64 15.39L280.48 11.3C280.48 11.3 284.03 8.46997 289.48 8.46997C295.51 8.46997 299.02 11.8 299.02 17.6V31.95H293.76V30.06C293.76 29.16 293.85 28.44 293.85 28.44H293.76C293.76 28.44 292.01 32.49 286.79 32.49C282.7 32.49 279 29.93 279 25.34C279 18.05 288.85 17.56 292.59 17.56V17.55ZM288.22 28.03C291.23 28.03 293.39 24.79 293.39 22V21.46H292.4C289.48 21.46 284.75 21.86 284.75 25.06C284.75 26.59 285.87 28.03 288.21 28.03H288.22Z" fill="black"></path>
                <path d="M305.82 13.9H302.85V9.36H305.95V2.75H311.53V9.36H316.75V13.9H311.53V22.81C311.53 26.59 314.5 27.13 316.07 27.13C316.7 27.13 317.11 27.04 317.11 27.04V32.03C317.11 32.03 316.44 32.17 315.36 32.17C312.16 32.17 305.82 31.23 305.82 23.53V13.9Z" fill="black"></path>
                <path d="M321.79 0H327.46V5.08H321.79V0ZM321.79 9H327.5V31.95H321.79V9Z" fill="black"></path>
                <path d="M344.7 8.45996C351.72 8.45996 357.34 13.46 357.34 20.47C357.34 27.48 351.72 32.48 344.74 32.48C337.76 32.48 332.1 27.53 332.1 20.47C332.1 13.41 337.72 8.45996 344.7 8.45996ZM344.74 27.63C348.43 27.63 351.53 24.75 351.53 20.48C351.53 16.21 348.43 13.33 344.74 13.33C341.05 13.33 337.9 16.25 337.9 20.48C337.9 24.71 341 27.63 344.74 27.63Z" fill="black"></path>
                <path d="M361.93 8.99996H367.42V11.66C367.42 12.51 367.33 13.23 367.33 13.23H367.42C368.41 11.29 370.93 8.45996 375.56 8.45996C380.64 8.45996 383.52 11.12 383.52 17.19V31.95H377.85V18.36C377.85 15.57 377.13 13.68 374.21 13.68C371.29 13.68 368.9 15.61 368.04 18.36C367.73 19.3 367.63 20.34 367.63 21.42V31.95H361.92V8.99996H361.93Z" fill="black"></path>
            </g>
        </svg>        
    </svg> 